<svg enable-background="new 0 0 48 48" height="48" viewBox="0 0 48 48" width="48" xmlns="http://www.w3.org/2000/svg"><g fill="#7cb342"><path d="m12 29.001c0 1.104-.896 2-2 2-1.104 0-2-.896-2-2v-9c0-1.104.896-2 2-2 1.104 0 2 .896 2 2z"/><path d="m40 29.001c0 1.104-.896 2-2 2-1.104 0-2-.896-2-2v-9c0-1.104.896-2 2-2 1.104 0 2 .896 2 2z"/><path d="m22 40c0 1.104-.896 2-2 2-1.104 0-2-.896-2-2v-9c0-1.104.896-2 2-2 1.104 0 2 .896 2 2z"/><path d="m30 40c0 1.104-.896 2-2 2-1.104 0-2-.896-2-2v-9c0-1.104.896-2 2-2 1.104 0 2 .896 2 2z"/><path d="m14 18.001v14.999c0 1.104.896 2 2 2h16c1.104 0 2-.896 2-2v-14.999z"/><path d="m24 8c-6 0-9.655 3.645-10 8h20c-.346-4.355-4-8-10-8zm-4 5.598c-.552 0-1-.448-1-1s.448-1 1-1 1 .448 1 1-.448 1-1 1zm8 0c-.553 0-1-.448-1-1s.447-1 1-1 1 .448 1 1-.447 1-1 1z"/></g><path d="m30 7-1.666 2.499" fill="none" stroke="#7cb342" stroke-linecap="round" stroke-width="2"/><path d="m18 7 1.333 2.082" fill="none" stroke="#7cb342" stroke-linecap="round" stroke-width="2"/></svg>