<svg height="64" viewBox="0 0 64 64" width="64" xmlns="http://www.w3.org/2000/svg"><path d="m47.3889973 34.7835282c0 5.4907688 3.6250983 10.0872394 8.6012428 11.6897551l.0097599.1319229c-3.1329215 8.4861124-9.3931874 13.7713592-9.3931874 13.7713592-3.3908612 3.5494196-8.3460917.1721941-8.3460917.1721941-3.9137119-2.7703803-9.9118553-.086097-9.9118553-.086097-4.6080577 3.2064201-7.9138685-.0847084-7.9138685-.0847084-5.1295141-3.7257796-9.6511271-14.3782044-9.6511271-14.3782044-6.43454948-19.9203538 6.6074388-26.4151251 6.6074388-26.4151251 6.3494991-4.2451392 15.044158 1.7330499 15.044158 1.7330499 15.1333911-9.1110101 21.7589554 2.0135597 21.9792498 2.3912757-4.1451605 1.9941183-7.0257193 6.183711-7.0257193 11.074578zm-15.303492-16.8413636c.783579-12.72986283 12.0869144-13.9421646 12.0869144-13.9421646.6943457 13.0770283-12.0869144 13.9421646-12.0869144 13.9421646z" fill="#979797" fill-rule="evenodd"/></svg>